<svg width="40" height="40" viewBox="0 0 40 40" fill="none" xmlns="http://www.w3.org/2000/svg">
<g clip-path="url(#clip0_3022_31111)">
<path d="M5.8335 20.8333H2.50016C1.57969 20.8333 0.833496 21.5795 0.833496 22.5V37.5C0.833496 38.4205 1.57969 39.1666 2.50016 39.1666H5.8335C6.75397 39.1666 7.50016 38.4205 7.50016 37.5V22.5C7.50016 21.5795 6.75397 20.8333 5.8335 20.8333Z" fill="#939EF3"/>
<path d="M39.167 27.6833C39.1734 28.125 39.0626 28.5605 38.846 28.9455C38.6293 29.3305 38.3145 29.6512 37.9337 29.875L23.6753 37.2916C22.3731 37.9651 20.8862 38.1934 19.442 37.9416L9.16699 36.125V23.3333C12.3337 23.3333 14.6003 22.9333 16.667 25H22.5003C23.1634 25 23.7993 25.2634 24.2681 25.7322C24.7369 26.2011 25.0003 26.8369 25.0003 27.5C25.0003 28.163 24.7369 28.7989 24.2681 29.2677C23.7993 29.7366 23.1634 30 22.5003 30H16.667C16.446 29.9867 16.2287 30.0618 16.0631 30.2087C15.8974 30.3556 15.7969 30.5623 15.7837 30.7833C15.7704 31.0043 15.8455 31.2216 15.9924 31.3872C16.1393 31.5529 16.346 31.6534 16.567 31.6666H23.8503C24.7047 31.6631 25.5323 31.3679 26.1961 30.83C26.8598 30.292 27.32 29.5435 27.5003 28.7083L35.8337 25.4416C36.2009 25.2866 36.601 25.2254 36.9979 25.2638C37.3947 25.3021 37.7757 25.4386 38.1065 25.6611C38.4373 25.8836 38.7075 26.185 38.8927 26.538C39.0778 26.8911 39.1721 27.2847 39.167 27.6833ZM23.3337 0.833313C21.3558 0.833313 19.4224 1.4198 17.778 2.51862C16.1335 3.61743 14.8517 5.17922 14.0949 7.00648C13.338 8.83374 13.14 10.8444 13.5258 12.7842C13.9117 14.724 14.8641 16.5059 16.2626 17.9044C17.6611 19.3029 19.4429 20.2553 21.3828 20.6412C23.3226 21.027 25.3332 20.829 27.1605 20.0721C28.9878 19.3152 30.5495 18.0335 31.6484 16.389C32.7472 14.7445 33.3337 12.8111 33.3337 10.8333C33.3337 8.18115 32.2801 5.63761 30.4047 3.76225C28.5294 1.88688 25.9858 0.833313 23.3337 0.833313ZM22.917 9.99998H23.7503C24.5239 9.94473 25.2877 10.199 25.8737 10.7069C26.4598 11.2148 26.8201 11.9348 26.8753 12.7083C26.9306 13.4819 26.6763 14.2457 26.1684 14.8317C25.6605 15.4178 24.9405 15.7781 24.167 15.8333V16.6666C24.167 16.8877 24.0792 17.0996 23.9229 17.2559C23.7666 17.4122 23.5547 17.5 23.3337 17.5C23.1126 17.5 22.9007 17.4122 22.7444 17.2559C22.5881 17.0996 22.5003 16.8877 22.5003 16.6666V15.8333H20.8337C20.6126 15.8333 20.4007 15.7455 20.2444 15.5892C20.0881 15.433 20.0003 15.221 20.0003 15C20.0003 14.779 20.0881 14.567 20.2444 14.4107C20.4007 14.2544 20.6126 14.1666 20.8337 14.1666H23.7503C24.0818 14.1666 24.3998 14.035 24.6342 13.8005C24.8686 13.5661 25.0003 13.2482 25.0003 12.9166C25.0003 12.5851 24.8686 12.2672 24.6342 12.0328C24.3998 11.7983 24.0818 11.6666 23.7503 11.6666H22.917C22.1753 11.6763 21.4579 11.4023 20.9116 10.9005C20.3653 10.3987 20.0313 9.70713 19.9781 8.96726C19.9249 8.22739 20.1564 7.49514 20.6252 6.92032C21.0941 6.3455 21.7649 5.97155 22.5003 5.87498V4.99998C22.5003 4.77897 22.5881 4.567 22.7444 4.41072C22.9007 4.25444 23.1126 4.16665 23.3337 4.16665C23.5547 4.16665 23.7666 4.25444 23.9229 4.41072C24.0792 4.567 24.167 4.77897 24.167 4.99998V5.83331H25.8337C26.0547 5.83331 26.2666 5.92111 26.4229 6.07739C26.5792 6.23367 26.667 6.44563 26.667 6.66665C26.667 6.88766 26.5792 7.09962 26.4229 7.2559C26.2666 7.41218 26.0547 7.49998 25.8337 7.49998H22.917C22.5855 7.49998 22.2675 7.63168 22.0331 7.8661C21.7987 8.10052 21.667 8.41846 21.667 8.74998C21.667 9.0815 21.7987 9.39944 22.0331 9.63386C22.2675 9.86828 22.5855 9.99998 22.917 9.99998Z" fill="#939EF3"/>
</g>
<defs>
<clipPath id="clip0_3022_31111">
<rect width="40" height="40" fill="white"/>
</clipPath>
</defs>
</svg>
