<svg width="40" height="40" viewBox="0 0 40 40" fill="none" xmlns="http://www.w3.org/2000/svg">
<g clip-path="url(#clip0_3022_31106)">
<path d="M30.8337 15.8333C31.4967 15.8333 32.1326 15.5699 32.6015 15.1011C33.0703 14.6323 33.3337 13.9964 33.3337 13.3333V12.1883C33.3306 9.84079 32.3967 7.59028 30.7367 5.93031C29.0767 4.27035 26.8262 3.33642 24.4787 3.33333H22.5004V2.5C22.5004 1.83696 22.237 1.20107 21.7681 0.732233C21.2993 0.263392 20.6634 0 20.0004 0C19.3373 0 18.7014 0.263392 18.2326 0.732233C17.7638 1.20107 17.5004 1.83696 17.5004 2.5V3.33333H15.522C13.3962 3.33016 11.3401 4.0919 9.72945 5.47939C8.1188 6.86688 7.06106 8.78751 6.74946 10.8904C6.43787 12.9933 6.89321 15.1382 8.03232 16.9331C9.17142 18.728 10.9182 20.0532 12.9537 20.6667L17.5004 21.91V31.6667H15.522C14.5 31.6653 13.5203 31.2588 12.7976 30.5361C12.0749 29.8134 11.6683 28.8337 11.667 27.8117V26.6667C11.667 26.0036 11.4036 25.3677 10.9348 24.8989C10.466 24.4301 9.83007 24.1667 9.16703 24.1667C8.50399 24.1667 7.8681 24.4301 7.39926 24.8989C6.93042 25.3677 6.66703 26.0036 6.66703 26.6667V27.8117C6.67011 30.1592 7.60404 32.4097 9.26401 34.0697C10.924 35.7297 13.1745 36.6636 15.522 36.6667H17.5004V37.5C17.5004 38.163 17.7638 38.7989 18.2326 39.2678C18.7014 39.7366 19.3373 40 20.0004 40C20.6634 40 21.2993 39.7366 21.7681 39.2678C22.237 38.7989 22.5004 38.163 22.5004 37.5V36.6667H24.4787C26.6046 36.6698 28.6606 35.9081 30.2713 34.5206C31.8819 33.1331 32.9397 31.2125 33.2513 29.1096C33.5628 27.0067 33.1075 24.8618 31.9684 23.0669C30.8293 21.272 29.0825 19.9468 27.047 19.3333L22.5004 18.0933V8.33333H24.4787C25.5007 8.33466 26.4805 8.74123 27.2031 9.4639C27.9258 10.1866 28.3324 11.1663 28.3337 12.1883V13.3333C28.3337 13.9964 28.5971 14.6323 29.0659 15.1011C29.5348 15.5699 30.1707 15.8333 30.8337 15.8333ZM25.637 24.1317C26.5163 24.4087 27.2672 24.9916 27.7537 25.7746C28.2402 26.5577 28.4302 27.4891 28.2891 28.4001C28.148 29.3111 27.6853 30.1415 26.9848 30.7407C26.2842 31.34 25.3922 31.6685 24.4704 31.6667H22.5004V23.275L25.637 24.1317ZM17.5004 16.725L14.3637 15.8683C13.4851 15.5915 12.7347 15.0093 12.2481 14.2271C11.7616 13.445 11.571 12.5145 11.711 11.604C11.851 10.6936 12.3122 9.86326 13.0112 9.26335C13.7102 8.66344 14.6009 8.33354 15.522 8.33333H17.5004V16.725Z" fill="#939EF3"/>
</g>
<defs>
<clipPath id="clip0_3022_31106">
<rect width="40" height="40" fill="white"/>
</clipPath>
</defs>
</svg>
